<?xml version="1.0" standalone="no"?>
<!DOCTYPE svg PUBLIC "-//W3C//DTD SVG 20010904//EN"
 "http://www.w3.org/TR/2001/REC-SVG-20010904/DTD/svg10.dtd">
<svg version="1.0" xmlns="http://www.w3.org/2000/svg"
 width="250.000000pt" height="250.000000pt" viewBox="0 0 250.000000 250.000000"
 preserveAspectRatio="xMidYMid meet">
<metadata>
Created by potrace 1.14, written by Peter Selinger 2001-2017
</metadata>
<g transform="translate(0.000000,250.000000) scale(0.100000,-0.100000)"
fill="#000000" stroke="none">
<path d="M162 2483 c-23 -8 -62 -34 -86 -59 -81 -80 -76 -8 -76 -1169 0 -1137
-2 -1094 62 -1167 18 -20 53 -47 78 -60 l45 -23 1044 -3 c1181 -3 1116 -7
1195 72 81 82 76 6 73 1190 l-2 1051 -23 45 c-25 48 -68 92 -117 119 -27 15
-126 16 -1090 18 -922 1 -1066 -1 -1103 -14z"/>
</g>
</svg>
